<?xml version="1.0" encoding="utf-8"?>
<!-- Generator: Adobe Illustrator 15.0.0, SVG Export Plug-In . SVG Version: 6.00 Build 0)  -->
<!DOCTYPE svg PUBLIC "-//W3C//DTD SVG 1.1//EN" "http://www.w3.org/Graphics/SVG/1.1/DTD/svg11.dtd">
<svg version="1.1" id="Layer_1" xmlns="http://www.w3.org/2000/svg" xmlns:xlink="http://www.w3.org/1999/xlink" x="0px" y="0px"
	 width="463px" height="36px" viewBox="0 0 463 36" enable-background="new 0 0 463 36" xml:space="preserve">
<path fill="#FFFFFF" d="M24.01,0H0v22.669c0,0,13.5,11.18,24.75-1.77c3.569,5.029,9.399,8.32,16.01,8.32
	c6.99,0,13.11-3.681,16.6-9.211c3.721,5.75,11.011,9.15,17.511,6.471c2.12-0.881,3.909-2.211,5.33-3.83
	c2.56,5.75,9.199,8.459,15.029,6.06c2.63-1.09,4.66-3.04,5.88-5.39c3.301,2.8,7.99,3.699,12.261,1.939
	c2.85-1.18,4.989-3.34,6.229-5.93c2.21,4.74,6.82,8.18,12.37,8.59c2.41,0.18,4.72-0.24,6.81-1.12c3.511,4.58,8.851,7.7,15.03,8.16
	c7.28,0.54,13.96-2.739,18.12-8.149c1.34,0.529,2.79,0.869,4.3,0.979c5.26,0.39,10.08-2.04,13.01-6c4,3.601,9.29,5.771,15.07,5.71
	c1.73-0.02,3.42-0.24,5.03-0.63c4.31,3.29,9.7,5.229,15.53,5.17c7.779-0.08,14.71-3.69,19.29-9.31
	c4.489,2.399,10.109,2.319,14.649-0.701c1.641-1.09,2.99-2.459,4.021-4.01c2.229,6.11,8.27,10.271,15.04,9.771
	c1.51-0.11,2.96-0.45,4.3-0.979c4.16,5.41,10.84,8.689,18.12,8.149c6.18-0.46,11.52-3.58,15.029-8.16c2.091,0.88,4.4,1.3,6.811,1.12
	c5.58-0.41,10.21-3.88,12.399-8.65c3.271,6.931,11.37,10.16,18.511,7.211c2.12-0.881,3.92-2.211,5.34-3.84
	c2.56,5.75,9.2,8.469,15.03,6.06c2.63-1.091,4.659-3.04,5.89-5.39c3.3,2.799,7.99,3.699,12.26,1.939c1.19-0.49,2.25-1.16,3.18-1.95
	c2.96,3.05,7.17,4.81,11.721,4.47c1.51-0.109,2.96-0.449,4.3-0.979c4.16,5.41,10.84,8.69,18.12,8.149
	c6.18-0.459,11.52-3.58,15.029-8.16c0,0,11.471,6.07,19.05-4.119V0H57.49H24.01z"/>
<path fill="#FFFFFF" d="M463,23.37"/>
<path fill="#F7F7F6" d="M414.92,25.221c-2.42-3.801-2.761-8.341-1.351-12.301c-0.29,3.01,0.37,6.12,2.11,8.859
	c4.149,6.531,12.81,8.421,19.34,4.211c2.73-1.76,4.65-4.32,5.66-7.16c-0.4,4.18-2.62,8.15-6.42,10.59
	C427.73,33.63,419.07,31.75,414.92,25.221z"/>
<path fill="#F7F7F6" d="M95.98,26.12c2.561-1.82,3.971-4.67,4.09-7.601c-0.6,2.021-1.85,3.86-3.68,5.17
	C92,26.82,85.89,25.74,82.76,21.29c-1.31-1.87-1.88-4.03-1.79-6.14c-0.84,2.81-0.43,5.97,1.38,8.56
	C85.48,28.18,91.58,29.25,95.98,26.12z"/>
<path fill="#F7F7F6" d="M331.05,16.96c0.53-3.11-0.47-6.12-2.45-8.29c0.99,1.86,1.41,4.05,1.03,6.28c-0.91,5.34-5.98,8.93-11.32,8
	c-2.229-0.39-4.16-1.511-5.57-3.07c1.381,2.58,3.881,4.53,6.99,5.07C325.07,25.88,330.14,22.3,331.05,16.96z"/>
<path fill="#F7F7F6" d="M136.36,25.189c4.381-0.969,7.801-3.93,9.591-7.729c-1.91,2.33-4.561,4.06-7.711,4.761
	c-7.52,1.67-14.97-3.171-16.63-10.801c-0.689-3.19-0.26-6.36,1.021-9.09c-2.65,3.23-3.86,7.63-2.9,12.07
	C121.39,22.01,128.84,26.85,136.36,25.189z"/>
<path fill="#F7F7F6" d="M55.33,1.53c0.649,1.96,0.93,4.09,0.77,6.29c-0.649,8.92-8.359,15.62-17.229,14.97
	c-5.95-0.44-10.891-4.09-13.301-9.14c1.99,6.02,7.41,10.56,14.091,11.06C48.52,25.37,56.23,18.66,56.89,9.74
	C57.1,6.8,56.52,4,55.33,1.53z"/>
</svg>
